<svg xmlns="http://www.w3.org/2000/svg" viewBox="0 0 128 128">
  <rect x="4" y="4" width="120" height="120" rx="28" fill="#B4553A"/>
  <g fill="none" stroke="#FAF6F0" stroke-width="7" stroke-linecap="round">
    <path d="M56 43 C33 40 30 68 50 75"/>
    <path d="M72 43 C95 40 98 68 78 75"/>
  </g>
  <path fill="#FAF6F0" d="M56 37 L56 47 C48 53 47 72 53 86 C57 95 60 99 64 99 C68 99 71 95 75 86 C81 72 80 53 72 47 L72 37 Z"/>
  <rect x="51" y="29" width="26" height="8" rx="3" fill="#FAF6F0"/>
  <rect x="55" y="98" width="18" height="6" rx="2" fill="#FAF6F0"/>
  <rect x="49" y="103" width="30" height="7" rx="2.5" fill="#FAF6F0"/>
</svg>
